<svg width="71" height="64" viewBox="0 0 71 64" fill="none" xmlns="http://www.w3.org/2000/svg">
<path d="M29.1788 3.9896C32.7073 -0.156828 39.1126 -0.156828 42.6411 3.9896C44.7222 6.43517 47.9675 7.55917 51.1152 6.92374L52.6916 6.60552C57.5506 5.62462 62.0293 9.49188 61.7671 14.442C61.6028 17.5422 63.3443 20.4295 66.163 21.7304L66.7099 21.9828C71.3379 24.1188 72.3691 30.2453 68.7088 33.7926C66.4949 35.9381 65.8809 39.2567 67.1874 42.0491C69.2801 46.5221 66.3695 51.7297 61.4632 52.291L60.0327 52.4546C56.8949 52.8136 54.2402 54.9384 53.2028 57.9214C51.5102 62.7878 45.8095 64.9155 41.3423 62.3481L40.3132 61.7567C37.5868 60.1897 34.2331 60.1897 31.5066 61.7567L30.4775 62.3481C26.0104 64.9155 20.3097 62.7878 18.6171 57.9214C17.5796 54.9384 14.9249 52.8136 11.7872 52.4546L10.3567 52.291C5.45034 51.7297 2.53981 46.5221 4.63251 42.0491C5.93893 39.2567 5.32493 35.9381 3.1111 33.7926C-0.549182 30.2453 0.48194 24.1188 5.10997 21.9828L5.65683 21.7304C8.4756 20.4295 10.2171 17.5422 10.0528 14.442C9.79053 9.49188 14.2692 5.62462 19.1283 6.60552L20.7047 6.92374C23.8524 7.55917 27.0976 6.43517 29.1788 3.9896Z" fill="white" fill-opacity="0.52"/>
</svg>
