<svg width="845" height="229" viewBox="0 0 845 229" fill="none" xmlns="http://www.w3.org/2000/svg">
<path fill-rule="evenodd" clip-rule="evenodd" d="M46.1758 3.42975C33.5521 7.31006 18.7778 20.4901 12.6838 33.3054C7.66635 43.862 7.65882 62.7064 12.6687 73.2429C16.4844 81.2659 16.3817 81.7257 8.28725 93.1867C0.726068 103.893 0 106.529 0 123.272C0 143.723 3.62285 151.079 18.7527 161.356C34.2907 171.91 68.4512 167.43 89.4874 152.081C105.023 140.742 115.894 124.636 126.65 97.0171C141.487 58.921 151.825 37.0458 154.974 37.0808C156.491 37.0958 163.93 38.7698 171.504 40.7987C189.425 45.5985 210.281 45.531 224.71 40.6238C236.998 36.4462 249.169 26.9065 249.043 21.5545C248.996 19.6031 247.942 20.0654 246.397 22.7139C241.49 31.1267 220.436 39.5619 204.76 39.397C189.137 39.2321 163.422 32.3734 163.184 28.3057C162.919 23.7783 179.593 14.5635 188.051 14.5635C193.359 14.5635 198.183 16.5324 201.45 20.0329C204.257 23.0387 206.556 24.1906 206.556 22.589C206.556 20.9874 203.721 17.8217 200.256 15.5554C190.755 9.34393 170.785 11.9225 161.789 20.5226L154.811 27.1939L127.434 16.2126C85.5015 -0.605467 68.1633 -3.33394 46.1758 3.42975ZM116.422 23.456C148.652 33.5053 147.919 32.7957 139.213 45.4211C135.177 51.2778 124.85 68.9354 116.267 84.664C96.36 121.143 84.4775 138.609 71.7812 150.055C50.9579 168.829 28.2593 168.04 16.9676 148.146C9.67932 135.303 9.33631 112.743 16.2015 97.6517L21.0286 87.0427L30.1221 92.3972C37.0573 96.4799 43.3291 97.7516 56.5386 97.7516H73.8593L73.8492 105.505C73.8367 116.156 65.3792 129.071 55.6573 133.289C49.8112 135.828 48.9574 136.822 52.5778 136.88C58.8546 136.982 70.3516 129.544 75.702 121.921C78.0054 118.637 79.8456 110.892 79.9458 104.073C80.0409 97.4443 80.9798 92.0224 82.0338 92.0224C85.201 92.0199 93.8864 76.1463 93.6535 70.7818C93.5108 67.4612 92.6846 68.3682 91.1974 73.4828C89.9656 77.7179 86.7333 83.1923 84.0143 85.6459C79.2297 89.9685 78.8241 89.8636 71.3606 82.4153C61.9642 73.038 49.1677 70.2346 34.108 74.2549C20.7482 77.8204 18.8729 76.0589 18.8153 59.878C18.7502 41.0611 32.7459 23.466 52.9483 16.9671C64.3452 13.3017 93.3656 16.27 116.422 23.456ZM433.339 27.7211C427.044 34.2924 415.555 53.2117 403.394 77.0308C392.543 98.2888 382.118 118.035 380.227 120.916C378.337 123.794 377.441 126.798 378.235 127.592C379.031 128.384 378.047 132.23 376.049 136.138C368.58 150.752 359.081 183.538 358.756 195.821C358.385 209.918 360.145 214.451 365.994 214.451C368.948 214.451 369.239 213.644 367.173 211.163C363.916 207.242 366.249 197.451 377.296 168.714C382.914 154.087 385.826 149.41 388.935 150C401.659 152.423 395.966 190.834 380.613 206.156C370.611 216.137 373.2 217.157 384.484 207.682C398.792 195.666 405.65 172.297 399.561 156.314C397.418 150.689 398.034 150.127 409.558 147.179C423.168 143.698 442.875 127.862 452.066 113.018C455.053 108.196 457.89 104.643 458.371 105.122C458.851 105.602 457.539 111.564 455.454 118.373C446.052 149.043 464.81 165.424 486.712 145.675L496.487 136.862L493.866 147.549C490.418 161.603 490.13 161.906 467.209 175.413C445.016 188.491 426.881 206.358 426.881 215.146C426.881 234.602 456.958 229.55 480.383 206.158C490.34 196.216 501.993 175.96 501.993 168.594C501.993 166.705 506.602 161.973 512.233 158.078C523.507 150.28 554.57 117.865 554.57 113.9C554.57 112.526 547.097 119.457 537.961 129.304C520.966 147.624 506.995 157.608 507.007 151.426C507.017 146.302 519.015 103.056 523.199 93.0618C525.307 88.0296 527.03 83.6846 527.03 83.4022C527.03 83.1199 523.532 83.4022 519.256 84.0294C511.141 85.2187 510.871 85.6385 501.044 112.358C495.2 128.249 483.305 145.577 475.936 148.928C461.703 155.399 461.062 136.9 474.364 103.481C478.543 92.9843 481.963 83.787 481.963 83.0449C481.963 82.3003 478.873 82.0505 475.095 82.4852C470.045 83.0649 466.102 86.5255 460.193 95.5579C446.548 116.411 429.047 134.888 418.336 139.743C406.108 145.285 392.218 145.91 390.332 141.002C387.646 134.021 403.86 108.063 422.563 89.3938C445.168 66.829 461.933 41.9281 461.933 30.9168C461.933 13.6515 448.278 12.1273 433.339 27.7211ZM458.305 31.429C455.807 41.7232 441.405 62.3191 424.33 80.0166L409.135 95.7678L417.094 79.5269C432.36 48.3844 449.387 24.5578 456.383 24.5578C459.034 24.5578 459.537 26.3543 458.305 31.429ZM676.143 57.5967C670.815 65.1875 671.253 75.0944 677.252 82.7076C683.854 91.0829 683.626 93.2042 674.646 107.171C661.524 127.58 639.604 145.722 622.17 150.609C616.454 152.211 616.625 151.781 624.143 145.672C644.338 129.261 654.416 94.8433 641.642 85.9158C635.212 81.4208 625.408 80.9211 615.726 84.594C612.003 86.0058 608.428 86.6329 607.779 85.9883C605.325 83.5371 618.224 68.8404 625.666 65.6072L633.437 62.2316L625.618 62.1342C614.176 61.9918 600.433 78.2426 584.264 111.029C576.883 125.998 568.872 139.713 566.463 141.51C561.703 145.055 560.622 151.069 564.503 152.403C567.905 153.573 551.786 192.356 541.872 206.858C537.34 213.484 530.387 220.82 526.421 223.159C511.336 232.049 497.866 220.555 500.107 200.706C501.507 188.328 498.51 187.476 496.089 199.562C494.148 209.239 499.714 223.051 507.148 227.024C515.002 231.216 530.66 228.518 542.029 221.01C559.275 209.621 563.792 201.373 581.057 149.772C581.976 147.024 583.293 147.284 587.434 151.022C595.053 157.903 622.358 157.448 635.941 150.215C649.894 142.784 672.986 118.295 680.802 102.639C687.434 89.3564 691.062 87.36 699.95 92.1073C706.613 95.6653 706.047 100.643 697.201 116.284C689.835 129.309 687.119 143.186 690.779 149.095C696.242 157.918 723.638 146.782 737.806 129.976L744.431 122.118L746.181 132.457C749.471 151.891 765.72 159.882 783.319 150.722C787.265 148.668 793.854 146.989 797.963 146.989C802.074 146.989 809.134 145.237 813.654 143.096C823.27 138.544 845 118.442 845 114.1C845 112.456 840.936 115.849 835.969 121.638C826.412 132.779 811.187 141.992 802.329 141.992C799.405 141.992 797.437 141.147 797.955 140.118C808.018 120.124 810.737 111.559 810.955 99.1583C811.14 88.5593 810.016 83.7545 806.43 79.7943C800.86 73.6452 792.875 73.0206 786.015 78.1976C783.344 80.2165 778.309 81.9031 774.829 81.9455C764.749 82.073 757.24 89.124 749.742 105.505C740.328 126.076 718.017 146.989 705.486 146.989C697.579 146.989 698.148 141.512 708.24 120.496C712.89 110.812 717.436 100.563 718.34 97.7167C720.849 89.8336 713.813 84.5241 700.859 84.5241H689.77V71.2815C689.77 53.1268 683.616 46.9452 676.143 57.5967ZM183.274 61.1173C180.765 63.6234 181.105 71.4814 183.797 73.1405C188.193 75.854 194.31 71.4464 193.544 66.117C192.785 60.8374 186.581 57.8166 183.274 61.1173ZM345.929 61.2047C342.927 64.2005 344.177 71.4639 347.942 72.9081C352.712 74.7321 359.484 67.9734 357.657 63.2136C356.209 59.4557 348.931 58.2089 345.929 61.2047ZM684.763 72.1785C684.763 78.3026 683.771 81.7082 682.259 80.7762C680.882 79.9267 679.756 75.3642 679.756 70.6344C679.756 65.9046 680.882 62.0367 682.259 62.0367C683.636 62.0367 684.763 66.6017 684.763 72.1785ZM63.8444 81.9106C83.9267 96.0026 53.3664 102.114 32.1601 88.2495C24.9068 83.5047 26.3139 80.3714 37.0523 77.3556C46.8318 74.6072 55.5497 76.0913 63.8444 81.9106ZM269.832 84.4966C264.441 86.9052 256.449 93.2117 252.07 98.5137C242.419 110.2 242.021 108.875 250.583 93.584L257.058 82.0255L251.209 82.063C243.23 82.1154 242.078 83.2098 228.24 103.826C215.491 122.82 190.457 147.878 182.037 150.077C167.681 153.823 166.907 137.734 179.939 106.357C184.939 94.3161 189.03 83.9169 189.03 83.2448C189.03 81.3459 178.081 81.8856 175.044 83.9369C172.59 85.5935 155.745 110.195 150.69 119.504C149.571 121.566 152.681 118.755 157.603 113.258L166.549 103.264L162.766 114.197C157.904 128.254 157.951 141.904 162.883 148.93C167.891 156.066 181.644 156.359 192.658 149.567C200.577 144.683 216.583 127.118 225.246 113.805C233.33 101.38 231.981 108.368 221.743 131.92L211.718 154.987L218.521 153.283C222.261 152.346 225.446 151.391 225.596 151.159C225.746 150.927 230.801 141.18 236.83 129.499C247.063 109.67 265.635 87.0227 271.664 87.0227C278.272 87.0227 276.722 96.3274 267.012 114.969C256.269 135.593 254.479 143.843 259.634 148.988C263.695 153.041 277.879 152.778 286.173 148.496C292.931 145.008 316.561 121.301 325.031 109.51C328.549 104.613 329.182 104.343 327.955 108.261C320.256 132.889 320.306 142.716 328.168 150.562C332.752 155.137 344.73 155.692 352.562 151.691C359.322 148.238 376.807 131.76 376.807 128.844C376.807 127.665 371.457 131.195 364.915 136.687C351.45 147.988 341.613 152.488 336.821 149.532C331.443 146.214 335.056 125.274 344.915 102.639L353.891 82.0255H346.548C340.742 82.0255 337.77 84.1643 332.342 92.2447C312.31 122.085 284.361 149.488 273.96 149.488C266.647 149.488 267.941 141.779 278.913 120.004C295.89 86.3031 292.803 74.2324 269.832 84.4966ZM802.5 85.9358C803.842 89.4613 804.941 94.8783 804.941 97.9765C804.941 106.964 797.8 128.487 792.758 134.703L788.131 140.408L783.902 133.969C781.576 130.426 779.055 123.715 778.296 119.055C774.441 95.3455 795.241 66.884 802.5 85.9358ZM631.684 87.5224C639.939 95.7602 628.808 125.431 611.665 140.887C601.708 149.865 595.201 151.556 590.123 146.489C580.349 136.735 597.511 101.834 618.307 89.179C627.318 83.6945 627.791 83.6371 631.684 87.5224ZM775.57 96.3924C771.649 110.387 773.334 128.664 779.285 136.695C784.796 144.133 784.816 144.365 780.076 146.896C773.331 150.499 769.761 150.147 764.453 145.352C756.464 138.136 759.105 110.997 769.341 95.1431C774.363 87.36 777.901 88.0721 775.57 96.3924ZM28.7926 125.356C28.7926 130.246 39.899 137.966 44.3606 136.178C46.4462 135.34 46.1007 134.821 43.3717 134.693C41.0607 134.586 36.8345 131.533 33.9828 127.912C30.2698 123.202 28.7926 122.475 28.7926 125.356ZM484.066 178.524C478.698 191.022 464.938 208.427 454.988 215.308C445.341 221.979 433.479 224.036 430.682 219.521C428.689 216.302 434.968 204.549 442.292 197.788C449.235 191.379 484.975 169.149 486.264 170.438C486.755 170.928 485.766 174.566 484.066 178.524Z" fill="white"/>
</svg>
